<svg xmlns="http://www.w3.org/2000/svg" viewBox="0 0 609.91 298.65"><defs><style>.cls-1{fill:#0f76de;}</style></defs><g id="Layer_2" data-name="Layer 2"><g id="Layer_1-2" data-name="Layer 1"><path class="cls-1" d="M95.34,78q6.5,8.52,6.5,21.35,0,17.81-11.67,27.37T57.05,136.3H2.49V0H55.13Q76,0,87.3,9.28T98.59,35.8q0,11.1-5.65,19A33.29,33.29,0,0,1,77.15,66.43Q88.82,69.49,95.34,78ZM14.17,61.83H53.41q16.47,0,24.89-6.7t8.42-19.52q0-25.45-33.31-25.46H14.17Zm67.48,57.82q8.13-6.51,8.13-19.91,0-27.37-33.5-27.38H14.17v53.8H56.28Q73.51,126.16,81.65,119.65Z"/><path class="cls-1" d="M124.82.77V15.7H109.31V.77ZM111,40.39h11.49V136.3H111Z"/><path class="cls-1" d="M211,75.23V136.3H199.28V76q0-14.35-5.83-21.06t-18.29-6.7q-14.35,0-23.16,8.81t-8.81,23.74V136.3H131.71V67a206.8,206.8,0,0,0-1.53-26.61h11.1L142.81,58A31.61,31.61,0,0,1,156,43.17a39.92,39.92,0,0,1,20.29-5.07Q211,38.1,211,75.23Z"/><path class="cls-1" d="M304.57,40.39V136.3H292.9V117.93a31.14,31.14,0,0,1-12.74,14.64q-8.52,5.07-20.38,5.07a41.65,41.65,0,0,1-22.5-6,39.55,39.55,0,0,1-14.93-17.23q-5.26-11.19-5.26-26.13t5.36-26.32a41.24,41.24,0,0,1,15-17.61,40.3,40.3,0,0,1,22.31-6.22q11.67,0,20.19,5A31.7,31.7,0,0,1,292.9,57.62V40.39ZM284.66,117q8.23-10.34,8.24-29.1,0-19-8.24-29.29T261.31,48.24q-15.12,0-23.55,10.63t-8.42,29.38q0,18.57,8.42,28.81t23.74,10.25Q276.42,127.31,284.66,117Z"/><path class="cls-1" d="M367,38.86l-.58,10.53a43.39,43.39,0,0,0-8.8-.77q-14.55,0-21.73,9.29T328.69,80V136.3H317.21V67a206.67,206.67,0,0,0-1.54-26.61h11.11l1.53,17.81a29.15,29.15,0,0,1,11.77-14.94,33.77,33.77,0,0,1,18.48-5.16A41.36,41.36,0,0,1,367,38.86Z"/><path class="cls-1" d="M461.55,40.39,416.37,146.26q-6.71,15.69-16.75,23.07t-25.18,10.43l-2.29-9.19q13.78-3.25,20.77-8.42t11.77-16.27l4-9.39-41-96.1h12.45l34.65,84.24,34.84-84.24Z"/><path class="cls-1" d="M132.47,160.82v136.3H110.65V212.5L74.47,297.12H58.2L21.82,213.46v83.66H0V160.82H19.53l46.9,106.63L113,160.82Z"/><path class="cls-1" d="M233.93,200.44v96.68H210.39V281.61a31.09,31.09,0,0,1-12.64,12.54,38.47,38.47,0,0,1-18.76,4.5,41.22,41.22,0,0,1-22.4-6.13,40.4,40.4,0,0,1-15.12-17.42q-5.35-11.28-5.36-26.22t5.46-26.52a42.68,42.68,0,0,1,15.22-18A39.45,39.45,0,0,1,179,198a38.58,38.58,0,0,1,18.76,4.49A31.09,31.09,0,0,1,210.39,215V200.44Zm-30.05,71.22q6.51-8.24,6.51-23.17,0-15.3-6.51-23.54t-18.57-8.23q-11.87,0-18.47,8.51t-6.61,23.65q0,14.92,6.61,23t18.66,8Q197.37,279.89,203.88,271.66Z"/><path class="cls-1" d="M306.3,199.68l-.2,21.82A33.41,33.41,0,0,0,293.47,219q-12.25,0-18.67,7.09t-6.41,18.76v52.26H244.65v-69.3a219.47,219.47,0,0,0-1.53-27.38h22.4l1.91,17a28.81,28.81,0,0,1,11.49-14.36,32.6,32.6,0,0,1,17.8-5A27,27,0,0,1,306.3,199.68Z"/><path class="cls-1" d="M416.94,200.64l-42.3,96.48H353.77L312,200.64h25.08l27.75,69.3,28.34-69.3Z"/><path class="cls-1" d="M494.86,250H428.24q.76,15.5,7.75,22.87t20.77,7.37q15.9,0,29.49-10.33l6.89,16.46a53.84,53.84,0,0,1-16.95,8.9,64.14,64.14,0,0,1-20.38,3.35q-23.74,0-37.33-13.4t-13.6-36.76a56.27,56.27,0,0,1,5.94-26.22,43.75,43.75,0,0,1,16.65-17.9A46.4,46.4,0,0,1,451.79,198q19.9,0,31.49,12.92t11.58,35.51Zm-58.1-29.2q-6,5.65-7.75,16.37h45q-1.14-10.9-6.6-16.46t-15-5.56Q442.79,215.18,436.76,220.83Z"/><path class="cls-1" d="M499.84,156.22h23.73v140.9H499.84Z"/><path class="cls-1" d="M528.17,286.4l6.7-16.85A57.91,57.91,0,0,0,570.28,281q8.61,0,13.31-2.87a9,9,0,0,0,4.69-8,8.45,8.45,0,0,0-3.26-7q-3.25-2.58-11.1-4.5L557.84,255q-26.42-5.75-26.42-27a25.7,25.7,0,0,1,5-15.6,32.68,32.68,0,0,1,14-10.63A53,53,0,0,1,571.24,198a63.28,63.28,0,0,1,19.91,3.15,52.29,52.29,0,0,1,16.84,9.1l-7.08,16.27q-14.55-10.72-29.86-10.72-8.24,0-12.83,3.06a9.61,9.61,0,0,0-4.59,8.42A8.57,8.57,0,0,0,556.4,234q2.77,2.49,9.48,4.21l16.46,3.63q14.35,3.27,21,10.06t6.6,17.7a25,25,0,0,1-10.72,21.25q-10.73,7.86-29.29,7.85Q543.67,298.65,528.17,286.4Z"/></g></g></svg>