<svg xmlns="http://www.w3.org/2000/svg" width="21.193" height="14.57" viewBox="0 0 21.193 14.57">
  <g id="email_2_" data-name="email (2)" transform="translate(0 0)">
    <g id="Group_31" data-name="Group 31" transform="translate(14.048 2.686)">
      <g id="Group_30" data-name="Group 30">
        <path id="Path_9" data-name="Path 9" d="M339.392,149.6l7.145,4.517V144.9Z" transform="translate(-339.392 -144.896)" fill="#fff"/>
      </g>
    </g>
    <g id="Group_33" data-name="Group 33" transform="translate(0 2.686)">
      <g id="Group_32" data-name="Group 32">
        <path id="Path_10" data-name="Path 10" d="M0,144.9v9.224L7.145,149.6Z" transform="translate(0 -144.896)" fill="#fff"/>
      </g>
    </g>
    <g id="Group_35" data-name="Group 35" transform="translate(0.04 0)">
      <g id="Group_34" data-name="Group 34">
        <path id="Path_11" data-name="Path 11" d="M20.788,80H2.245A1.308,1.308,0,0,0,.96,81.127l10.557,6.955,10.557-6.955A1.308,1.308,0,0,0,20.788,80Z" transform="translate(-0.96 -80)" fill="#fff"/>
      </g>
    </g>
    <g id="Group_37" data-name="Group 37" transform="translate(0.042 8.192)">
      <g id="Group_36" data-name="Group 36">
        <path id="Path_12" data-name="Path 12" d="M13.816,277.921l-1.874,1.234a.665.665,0,0,1-.728,0L9.339,277.92l-8.315,5.26A1.306,1.306,0,0,0,2.306,284.3H20.85a1.306,1.306,0,0,0,1.282-1.118Z" transform="translate(-1.024 -277.92)" fill="#fff"/>
      </g>
    </g>
  </g>
</svg>
