<svg id="Group_29" data-name="Group 29" xmlns="http://www.w3.org/2000/svg" width="20.106" height="20.106" viewBox="0 0 20.106 20.106">
  <path id="Path_8" data-name="Path 8" d="M18.492,13.2a11.415,11.415,0,0,1-3.585-.571,1.639,1.639,0,0,0-1.594.336l-2.261,1.707A12.493,12.493,0,0,1,5.436,9.053l1.656-2.2a1.625,1.625,0,0,0,.4-1.647,11.433,11.433,0,0,1-.573-3.591A1.615,1.615,0,0,0,5.306,0H1.613A1.615,1.615,0,0,0,0,1.613,18.513,18.513,0,0,0,18.492,20.106a1.615,1.615,0,0,0,1.613-1.613V14.81A1.615,1.615,0,0,0,18.492,13.2Z" fill="#fff"/>
</svg>
