<svg width="48" height="48" viewBox="0 0 48 48" fill="none" xmlns="http://www.w3.org/2000/svg">
<path fill-rule="evenodd" clip-rule="evenodd" d="M24 0C10.7452 0 0 10.7452 0 24C0 37.2548 10.7452 48 24 48C37.2548 48 48 37.2548 48 24C48 10.7452 37.2548 0 24 0ZM29.9084 19.4169L32.2019 18.6706C33.3975 18.2815 34.0519 16.9955 33.6634 15.7979C33.2749 14.6006 31.9907 13.9453 30.7949 14.3343L28.5015 15.0808L27.7562 12.7838C27.3678 11.5863 26.0835 10.931 24.8879 11.3202C23.6921 11.7093 23.0378 12.9954 23.4264 14.1927L24.1721 16.4901L19.3812 18.0495L18.6357 15.7516C18.247 14.5542 16.9628 13.8989 15.7672 14.2879C14.5714 14.677 13.917 15.9631 14.3057 17.1606L15.0515 19.4588L12.6845 20.2292C11.5675 20.6338 10.9397 21.8423 11.2733 23.0022C11.6209 24.2121 12.9041 24.9497 14.0909 24.5636L16.4583 23.7933L18.0159 28.5925L15.6482 29.3632C14.5311 29.7678 13.9034 30.9762 14.2367 32.1362C14.5846 33.3461 15.8677 34.0837 17.0543 33.6976L19.4226 32.927L20.1919 35.2972C20.5961 36.4158 21.8028 37.0445 22.9611 36.7104C24.1692 36.3623 24.9058 35.0772 24.5202 33.8887L23.7512 31.5185L28.5435 29.9592L29.3127 32.3292C29.7168 33.4479 30.9235 34.0765 32.0818 33.7427C33.29 33.3944 34.0265 32.1093 33.641 30.921L32.872 28.5508L35.1653 27.8045C36.3611 27.4155 37.0153 26.1294 36.6268 24.9319C36.2384 23.7346 34.9541 23.0792 33.7585 23.4683L31.4651 24.2148L29.9084 19.4169ZM25.5791 20.8255L27.1364 25.6238L22.3447 27.1835L20.7877 22.3846L25.5791 20.8255Z" fill="white"/>
</svg>
