<svg id="link" xmlns="http://www.w3.org/2000/svg" width="20.105" height="20.106" viewBox="0 0 20.105 20.106">
  <g id="Group_39" data-name="Group 39" transform="translate(6.76 0)">
    <g id="Group_38" data-name="Group 38">
      <path id="Path_13" data-name="Path 13" d="M184.124,1.38a4.712,4.712,0,0,0-6.664,0l-3.938,3.938a4.757,4.757,0,0,0,0,6.664,4.484,4.484,0,0,0,.947.719l.719-.719a1.619,1.619,0,0,0,.3-1.421,2.273,2.273,0,0,1-.3-.246,2.381,2.381,0,0,1,0-3.332l3.938-3.938a2.356,2.356,0,1,1,3.332,3.332l-2.6,2.6a6.781,6.781,0,0,1,.295,3.031c.011-.011.025-.018.036-.03l3.938-3.938A4.712,4.712,0,0,0,184.124,1.38Z" transform="translate(-172.159 0)" fill="#fff"/>
    </g>
  </g>
  <g id="Group_41" data-name="Group 41" transform="translate(0 7.099)">
    <g id="Group_40" data-name="Group 40">
      <path id="Path_14" data-name="Path 14" d="M12.288,181.495a4.485,4.485,0,0,0-.947-.719l-.719.719a1.618,1.618,0,0,0-.3,1.42,2.269,2.269,0,0,1,.3.246,2.381,2.381,0,0,1,0,3.332l-4.244,4.244A2.356,2.356,0,0,1,3.047,187.4L5.955,184.5a6.781,6.781,0,0,1-.295-3.031c-.011.011-.025.018-.036.03l-4.244,4.244A4.712,4.712,0,0,0,8.045,192.4l4.244-4.244A4.754,4.754,0,0,0,12.288,181.495Z" transform="translate(0 -180.776)" fill="#fff"/>
    </g>
  </g>
</svg>
