<svg width="24" height="24" viewBox="0 0 24 24" fill="none" xmlns="http://www.w3.org/2000/svg">
<path fill-rule="evenodd" clip-rule="evenodd" d="M3.5 12.0004C3.50061 10.1919 4.07801 8.4308 5.14826 6.97301C6.21851 5.51522 7.72583 4.43678 9.45108 3.89446C11.1763 3.35215 13.0296 3.37423 14.7414 3.9575C16.4533 4.54077 17.9344 5.65483 18.9697 7.13771C20.0049 8.62059 20.5401 10.395 20.4977 12.203C20.4552 14.011 19.8371 15.7583 18.7334 17.1909C17.6297 18.6235 16.0978 19.6667 14.3605 20.169C12.6231 20.6712 10.7709 20.6062 9.073 19.9834C9.64991 18.437 10.2096 16.8843 10.752 15.3254C11.326 15.7354 12.067 16.0004 13 16.0004C14.935 16.0004 16.975 14.7254 17.48 12.1964C18.117 9.02143 15.574 6.00043 12 6.00043C10.497 6.00043 9.019 6.60443 7.913 7.56243C6.805 8.52343 6 9.90743 6 11.5004C6 12.2754 6.234 13.1384 6.791 13.7064C6.97976 13.8922 7.23394 13.9964 7.4988 13.9966C7.76365 13.9968 8.01798 13.893 8.207 13.7074C8.39081 13.5237 8.4959 13.2757 8.50001 13.0159C8.50411 12.7561 8.40692 12.5048 8.229 12.3154C7.443 11.3354 8.479 9.71943 9.223 9.07443C9.996 8.40443 11.017 8.00043 12 8.00043C14.427 8.00043 15.884 9.97943 15.52 11.8044C15.216 13.3184 14.064 14.0004 13 14.0004C12.182 14.0004 11.742 13.6554 11.46 13.2084C11.614 12.7244 11.745 12.2844 11.839 11.9264C12.031 11.1894 12.147 10.3004 11.484 9.74743C10.991 9.33743 10.409 9.42743 10.053 9.60643C9.39 9.93643 9 10.7104 9 11.5004C9 11.9414 9.069 12.6254 9.317 13.3324C8.6717 15.257 7.99226 17.17 7.279 19.0704C6.11564 18.2943 5.16198 17.2428 4.50273 16.0094C3.84347 14.776 3.49903 13.3989 3.5 12.0004ZM12 1.50043C6.201 1.50043 1.5 6.20143 1.5 12.0004C1.5 17.7994 6.201 22.5004 12 22.5004C17.799 22.5004 22.5 17.7994 22.5 12.0004C22.5 6.20143 17.799 1.50043 12 1.50043Z" fill="white"/>
</svg>
