<svg width="24" height="24" viewBox="0 0 24 24" fill="none" xmlns="http://www.w3.org/2000/svg">
<path fill-rule="evenodd" clip-rule="evenodd" d="M2.99999 6.50043C2.99994 5.80936 3.20446 5.13374 3.58779 4.55872C3.97112 3.98371 4.5161 3.53505 5.15403 3.26929C5.79196 3.00353 6.49429 2.93257 7.17248 3.06535C7.85068 3.19814 8.47439 3.52872 8.96499 4.01543L9.37199 4.41943L9.92699 4.27143C11.2841 3.90675 12.7133 3.90599 14.0709 4.26921C15.4284 4.63243 16.6663 5.34683 17.6599 6.3405C18.6536 7.33417 19.368 8.57206 19.7312 9.92957C20.0944 11.2871 20.0937 12.7163 19.729 14.0734L19.581 14.6284L19.985 15.0354C20.6414 15.6918 21.0102 16.5821 21.0102 17.5104C21.0102 18.4387 20.6414 19.329 19.985 19.9854C19.3286 20.6418 18.4383 21.0106 17.51 21.0106C16.5817 21.0106 15.6914 20.6418 15.035 19.9854L14.628 19.5814L14.073 19.7294C12.7158 20.0943 11.2864 20.0953 9.92879 19.7321C8.57113 19.369 7.33308 18.6546 6.33927 17.6609C5.34547 16.6672 4.63097 15.4293 4.26771 14.0716C3.90444 12.714 3.90523 11.2847 4.26999 9.92743L4.41799 9.37243L4.01399 8.96543C3.36281 8.31052 2.99812 7.42398 2.99999 6.50043ZM6.49999 1.00043C5.46311 1.00047 4.44735 1.29362 3.56989 1.84606C2.69242 2.3985 1.98899 3.18773 1.54073 4.12272C1.09247 5.0577 0.917648 6.10036 1.03642 7.13042C1.15519 8.16049 1.56271 9.13599 2.21199 9.94443C2.07078 10.6206 1.99973 11.3096 1.99999 12.0004C1.99999 17.5234 6.47699 22.0004 12 22.0004C12.704 22.0004 13.392 21.9274 14.056 21.7884C15.1127 22.6367 16.4454 23.065 17.7985 22.9911C19.1516 22.9173 20.4298 22.3466 21.3879 21.3884C22.3461 20.4302 22.9169 19.152 22.9907 17.7989C23.0645 16.4459 22.6362 15.1132 21.788 14.0564C21.928 13.3924 22 12.7044 22 12.0004C22 6.47743 17.523 2.00043 12 2.00043C11.296 2.00043 10.608 2.07343 9.94399 2.21243C8.96828 1.42664 7.75278 0.998886 6.49999 1.00043ZM10.642 9.33043C10.775 9.07743 11.229 8.75043 11.932 8.75043C13.139 8.75043 13.804 9.22243 14.11 9.45643C14.3208 9.61742 14.587 9.68805 14.8499 9.65279C15.1129 9.61754 15.351 9.47928 15.512 9.26843C15.673 9.05758 15.7436 8.79142 15.7084 8.5285C15.6731 8.26557 15.5348 8.02742 15.324 7.86643C14.834 7.49243 13.747 6.75043 11.932 6.75043C10.664 6.75043 9.42499 7.34443 8.82399 8.49043C8.62003 8.8723 8.5198 9.30099 8.53331 9.73371C8.54682 10.1664 8.6736 10.588 8.90099 10.9564C9.32999 11.6694 10.073 12.1784 10.949 12.4144L12.503 12.8324C13.101 12.9934 14.01 13.5494 13.683 14.2984C13.485 14.7504 12.786 15.2504 11.756 15.2504C10.866 15.2504 10.08 15.0964 9.35599 14.5444C9.14489 14.3872 8.88031 14.3195 8.61965 14.3561C8.35898 14.3927 8.12325 14.5306 7.9636 14.7399C7.80395 14.9492 7.73324 15.2129 7.76683 15.474C7.80041 15.7351 7.93557 15.9724 8.14299 16.1344C9.11299 16.8744 10.12 17.2504 11.535 17.2504C13.114 17.2504 14.837 16.6524 15.515 15.1004C15.915 14.1854 15.783 13.2264 15.285 12.4574C14.516 11.2734 13.194 10.9304 11.913 10.5994C11.7648 10.5612 11.6168 10.5222 11.469 10.4824C10.943 10.3414 10.329 9.92943 10.642 9.33043Z" fill="white"/>
</svg>
