<svg width="48" height="48" viewBox="0 0 48 48" fill="none" xmlns="http://www.w3.org/2000/svg">
<path fill-rule="evenodd" clip-rule="evenodd" d="M0 24C0 37.2548 10.7452 48 24 48C37.2548 48 48 37.2548 48 24C48 10.7452 37.2548 0 24 0C10.7452 0 0 10.7452 0 24ZM36.3454 24.1328C36.3454 25.0201 36.2491 25.8837 36.064 26.7176C36.5351 27.6524 36.8 28.7044 36.8 29.8187C36.8 33.6736 33.6301 36.8 29.7197 36.8C28.508 36.8 27.3701 36.4988 26.3722 35.9706C25.6467 36.1026 24.9001 36.1724 24.1355 36.1724C17.3923 36.1724 11.9255 30.7832 11.9255 24.1328C11.9255 23.3048 12.0113 22.4947 12.1723 21.7142C11.5552 20.6755 11.2 19.4707 11.2 18.1828C11.2 14.3249 14.3699 11.2 18.2818 11.2C19.6651 11.2 20.9565 11.5932 22.0478 12.2713C22.7281 12.1556 23.425 12.0947 24.1355 12.0947C30.8801 12.0947 36.3454 17.4854 36.3454 24.1328Z" fill="white"/>
<path d="M30.3987 29.887C29.8343 30.6764 29.0004 31.2996 27.9167 31.7418C26.8465 32.181 25.5641 32.405 24.1026 32.405C22.349 32.405 20.8785 32.1009 19.73 31.4999C18.9097 31.0637 18.2339 30.4731 17.7206 29.7401C17.2014 29.0042 16.9395 28.2727 16.9395 27.5649C16.9395 27.1257 17.111 26.7429 17.4482 26.4298C17.7824 26.1182 18.2113 25.9624 18.7231 25.9624C19.1415 25.9624 19.5043 26.0855 19.7978 26.3304C20.0792 26.5663 20.3201 26.915 20.5142 27.3616C20.731 27.8513 20.9658 28.2638 21.2141 28.5857C21.455 28.9003 21.7997 29.1629 22.2392 29.3692C22.6817 29.574 23.2792 29.6808 24.0123 29.6808C25.0222 29.6808 25.8501 29.4671 26.4717 29.0487C27.0813 28.6406 27.3763 28.148 27.3763 27.5456C27.3763 27.0723 27.2213 26.6983 26.9052 26.4046C26.5711 26.0989 26.1331 25.8615 25.6017 25.6953C25.0463 25.5261 24.2937 25.3407 23.362 25.1478C22.0932 24.8807 21.017 24.5646 20.162 24.2041C19.286 23.8376 18.5801 23.3286 18.0638 22.6921C17.54 22.0437 17.2736 21.232 17.2736 20.2779C17.2736 19.3699 17.5521 18.5493 18.103 17.843C18.6478 17.1412 19.4456 16.5922 20.4736 16.2198C21.4866 15.8503 22.6907 15.6633 24.0559 15.6633C25.1457 15.6633 26.1045 15.788 26.9052 16.0343C27.7105 16.2806 28.3878 16.613 28.9206 17.024C29.458 17.4394 29.8584 17.8801 30.1082 18.3401C30.3611 18.8045 30.4905 19.266 30.4905 19.7126C30.4905 20.1429 30.322 20.5346 29.9893 20.8744C29.6552 21.2187 29.2322 21.3923 28.7355 21.3923C28.2839 21.3923 27.9287 21.2825 27.6849 21.0688C27.4561 20.8685 27.2183 20.5569 26.9549 20.1118C26.6508 19.542 26.2821 19.0924 25.8591 18.7749C25.4482 18.4662 24.7633 18.3119 23.8196 18.3119C22.9466 18.3119 22.2332 18.484 21.7048 18.8268C21.1961 19.1547 20.9477 19.5331 20.9477 19.9812C20.9477 20.2542 21.0275 20.4842 21.1931 20.6801C21.3647 20.8908 21.61 21.0718 21.9201 21.2261C22.2407 21.3849 22.5718 21.5125 22.903 21.6015C23.2416 21.695 23.8106 21.833 24.5918 22.011C25.5807 22.2188 26.4883 22.4547 27.2905 22.7084C28.1048 22.9636 28.8062 23.2782 29.3812 23.6477C29.9652 24.0231 30.4273 24.5038 30.757 25.0795C31.0866 25.6597 31.2537 26.3719 31.2537 27.2014C31.2537 28.1925 30.9647 29.0962 30.3987 29.887Z" fill="white"/>
</svg>
