<svg width="48" height="48" viewBox="0 0 48 48" fill="none" xmlns="http://www.w3.org/2000/svg">
<path fill-rule="evenodd" clip-rule="evenodd" d="M24 48C37.2548 48 48 37.2548 48 24C48 10.7452 37.2548 0 24 0C10.7452 0 0 10.7452 0 24C0 37.2548 10.7452 48 24 48ZM24.7037 8H30.0967C30.0967 12.0812 33.2772 15.4203 37.3333 15.5594V21.0319C34.706 20.9855 32.217 20.1044 30.1888 18.6203V29.7971C30.1888 35.4087 25.6717 40 20.0945 40C14.5171 40 10 35.4551 10 29.7971C10 24.1855 14.425 19.6869 19.9101 19.5942V25.0667C17.421 25.1594 15.3929 27.2464 15.3929 29.7971C15.3929 32.3942 17.4671 34.5276 20.0484 34.5276C22.6296 34.5276 24.7037 32.3942 24.7037 29.7971V8Z" fill="white"/>
</svg>
