<svg width="24" height="24" viewBox="0 0 24 24" fill="none" xmlns="http://www.w3.org/2000/svg">
<path d="M5.12 15.064C4.74133 15.064 4.416 14.984 4.144 14.824C3.872 14.664 3.664 14.4213 3.52 14.096C3.376 13.7653 3.304 13.3493 3.304 12.848C3.304 12.3413 3.37867 11.9253 3.528 11.6C3.68267 11.2747 3.896 11.032 4.168 10.872C4.44 10.712 4.75733 10.632 5.12 10.632C5.52533 10.632 5.888 10.7227 6.208 10.904C6.53333 11.0853 6.78933 11.3413 6.976 11.672C7.168 12.0027 7.264 12.3947 7.264 12.848C7.264 13.296 7.168 13.6853 6.976 14.016C6.78933 14.3467 6.53333 14.6053 6.208 14.792C5.888 14.9733 5.52533 15.064 5.12 15.064ZM2.576 15V9.064H3.824V11.568L3.744 12.84L3.768 14.12V15H2.576ZM4.904 14.04C5.112 14.04 5.296 13.992 5.456 13.896C5.62133 13.8 5.752 13.664 5.848 13.488C5.94933 13.3067 6 13.0933 6 12.848C6 12.5973 5.94933 12.384 5.848 12.208C5.752 12.032 5.62133 11.896 5.456 11.8C5.296 11.704 5.112 11.656 4.904 11.656C4.696 11.656 4.50933 11.704 4.344 11.8C4.17867 11.896 4.048 12.032 3.952 12.208C3.856 12.384 3.808 12.5973 3.808 12.848C3.808 13.0933 3.856 13.3067 3.952 13.488C4.048 13.664 4.17867 13.8 4.344 13.896C4.50933 13.992 4.696 14.04 4.904 14.04ZM8.09944 15V9.064H9.34744V15H8.09944ZM12.5537 15.064C12.095 15.064 11.687 14.968 11.3297 14.776C10.9777 14.584 10.6977 14.3227 10.4897 13.992C10.287 13.656 10.1857 13.2747 10.1857 12.848C10.1857 12.416 10.287 12.0347 10.4897 11.704C10.6977 11.368 10.9777 11.1067 11.3297 10.92C11.687 10.728 12.095 10.632 12.5537 10.632C13.007 10.632 13.4124 10.728 13.7697 10.92C14.127 11.1067 14.407 11.3653 14.6097 11.696C14.8124 12.0267 14.9137 12.4107 14.9137 12.848C14.9137 13.2747 14.8124 13.656 14.6097 13.992C14.407 14.3227 14.127 14.584 13.7697 14.776C13.4124 14.968 13.007 15.064 12.5537 15.064ZM12.5537 14.04C12.7617 14.04 12.9484 13.992 13.1137 13.896C13.279 13.8 13.4097 13.664 13.5057 13.488C13.6017 13.3067 13.6497 13.0933 13.6497 12.848C13.6497 12.5973 13.6017 12.384 13.5057 12.208C13.4097 12.032 13.279 11.896 13.1137 11.8C12.9484 11.704 12.7617 11.656 12.5537 11.656C12.3457 11.656 12.159 11.704 11.9937 11.8C11.8284 11.896 11.695 12.032 11.5937 12.208C11.4977 12.384 11.4497 12.5973 11.4497 12.848C11.4497 13.0933 11.4977 13.3067 11.5937 13.488C11.695 13.664 11.8284 13.8 11.9937 13.896C12.159 13.992 12.3457 14.04 12.5537 14.04ZM17.7719 16.616C17.3665 16.616 16.9745 16.5653 16.5959 16.464C16.2225 16.368 15.9105 16.2213 15.6599 16.024L16.1559 15.128C16.3372 15.2773 16.5665 15.3947 16.8439 15.48C17.1265 15.5707 17.4039 15.616 17.6759 15.616C18.1185 15.616 18.4385 15.5173 18.6359 15.32C18.8385 15.1227 18.9399 14.8293 18.9399 14.44V13.792L19.0199 12.712L19.0039 11.624V10.696H20.1879V14.28C20.1879 15.08 19.9799 15.6693 19.5639 16.048C19.1479 16.4267 18.5505 16.616 17.7719 16.616ZM17.5799 14.792C17.1799 14.792 16.8172 14.7067 16.4919 14.536C16.1719 14.36 15.9132 14.1173 15.7159 13.808C15.5239 13.4933 15.4279 13.128 15.4279 12.712C15.4279 12.2907 15.5239 11.9253 15.7159 11.616C15.9132 11.3013 16.1719 11.0587 16.4919 10.888C16.8172 10.7173 17.1799 10.632 17.5799 10.632C17.9425 10.632 18.2625 10.7067 18.5399 10.856C18.8172 11 19.0332 11.2267 19.1879 11.536C19.3425 11.84 19.4199 12.232 19.4199 12.712C19.4199 13.1867 19.3425 13.5787 19.1879 13.888C19.0332 14.192 18.8172 14.4187 18.5399 14.568C18.2625 14.7173 17.9425 14.792 17.5799 14.792ZM17.8279 13.768C18.0465 13.768 18.2412 13.7253 18.4119 13.64C18.5825 13.5493 18.7159 13.424 18.8119 13.264C18.9079 13.104 18.9559 12.92 18.9559 12.712C18.9559 12.4987 18.9079 12.3147 18.8119 12.16C18.7159 12 18.5825 11.8773 18.4119 11.792C18.2412 11.7013 18.0465 11.656 17.8279 11.656C17.6092 11.656 17.4145 11.7013 17.2439 11.792C17.0732 11.8773 16.9372 12 16.8359 12.16C16.7399 12.3147 16.6919 12.4987 16.6919 12.712C16.6919 12.92 16.7399 13.104 16.8359 13.264C16.9372 13.424 17.0732 13.5493 17.2439 13.64C17.4145 13.7253 17.6092 13.768 17.8279 13.768Z" fill="white"/>
</svg>
